<?xml version="1.0" encoding="UTF-8"?>
<svg id="Layer_1" data-name="Layer 1" xmlns="http://www.w3.org/2000/svg" viewBox="0 0 333.24 165.68">
  <defs>
    <style>
      .cls-1 {
        fill: #e7cbd8;
      }
    </style>
  </defs>
  <path class="cls-1" d="M0,139.48l.4-2.2c.4-2.6,1.4-4.2,3.2-4.6.8-.4,1.2-.2,1.8.2.6.6.6,1-.2,3.2q-.4,1,2.8,1c2.2.2,4.2-.2,5.8-.6l4.8-1.4c2.4-.6,3.6-.8,9-2.8l2.4-.8,2.2-1,3.2-1.4c.8-.2,3.2-1.4,5.6-2.6,2.4-1.4,4.4-2.4,4.4-2.2.2,0,1.6-.8,3-1.6,1.6-1,2.8-1.6,3-1.4.2,0,.6-.4,1.2-1.2l2-1.8,2-1.2c.4-.6,1.4-1,1.8-1,.6-.2,1.4-.8,2-1.4.6-.6,1.4-1,1.6-1,.4,0,1-.4,1.4-.8l3.6-2.8c1.2-1.2,2.4-2.2,2.4-2.4s.6-.4,1.4-.8c.8-.2,2.8-1.6,4.6-3,4.2-3.2,5.8-4.4,12-8.6,2.6-2,5.2-3.8,5.6-4.2.4-.4.8-.6.8-.6.2,0,.8-.4,1.4-.8l4.4-3c4.4-3.2,9.6-6.8,11-7.8.6-.6,1.2-1,1.4-1s1-.4,1.8-1.2l3.6-2.6c1.2-.8,3.2-2.2,4.4-3.2l3.4-2.6c-1,0-2.8.4-5.6.8l-7.4,1c-7.8,1.2-11.8,2.2-14.4,3.4-2.6,1-4,1-4.4-.4v-1c.4-.4,9.4-2.6,11.6-2.8l4-.8c1.2-.4,4.2-.8,6.6-1,7.4-1,10.2-1.4,10.6-1.6.2-.2.8,0,1.2,0,1,.4,1.4.2,2.8-.8l3.4-2.6c1.8-1.6,2.6-2,2.6-1.4,0,.4-1,1.2-3.2,3-1,.8-1.2,1.4-.4,1.2.2-.2,2.8-.4,5.4-.4l12.6-1c.4-.2,4.8-4.6,23-23.2,2-2,3.6-3.8,3.6-4l.2-.2c.2,0,1.6-1.2,3-2.6,4-4,9.8-9.4,13.4-12.6,6.8-6.4,8.4-8.2,4.8-5.4l-9.8,6.8c-.8.4-1.4.8-1.6,1.2-.4.2-1.2,1-2,1.6l-1.8,1.2c-.4.6-2.8,2-3.6,2.2-.4.2-.6.4-.6.6s-.4.4-.6.6c-.6.2-3.8,2.4-4.8,3.4-.4.2-1,.6-1.4.6-.4.2-.6.4-.6.6,0,0-.4.4-1,.6-.4.4-1.4,1-2,1.6-.8.8-1.6,1.2-1.8,1.2s-.6.4-.8.8c-.4.4-.6.8-.8.8-.4,0-1,.6-5.2,3.8l-3,2.2c-.6.6-2,1.6-2.8,2.6-1,.8-1.8,1.4-2.2,1.4s-1.4.6-2.2,1.2c-.6.6-2.2,2-3.4,2.8-1.2.8-2,1.8-2,2s-.2.4-.4.4-1.8,1.2-3.8,2.8c-.4.4-1,.8-1.2.8-.4,0-.8.2-1.2.4-.8.6-1.2.6-1.2,0,0-.2,1-1,2-1.8l2.6-2c.2-.2.6-.6.8-.6s.8-.4,1.4-.8c1.8-1.6,4.2-3.4,4.4-3.4s.4,0,.4-.2c0,0,1.4-1,2.8-2.2l5.4-4,1.4-1.2,2.4-1.8,3.4-2.6,1.8-1.2,1.4-.8c.8-.8,5.2-4.4,8.2-6.4l2-1.8c.2-.2,1-.6,1.4-.8l1.6-1,5.2-4.4,4-2.8c1.6-1.2,3-2.4,3-2.6.2-.2.4-.4.6-.2,0,0,.2,0,.2-.2s.2-.4.4-.4.6-.2,1-.4l1.4-1.2,2-1.2,7.2-5.2c2-1.4,4-3.2,4.6-3.8l2-1.4c.4-.4.8-1,1.2-1.6.2-.6.6-1.2,1-1.6.6-.6,1.6-.6,2.2-.2.4.6.6,2.2,0,3.4-.4,1-4.6,5.4-6.4,6.6-1.2.8-6.6,5.6-9.8,8.4l-8,7-3,2.8c-3,2.6-12.8,12.4-21.8,22l-10,10-2.6,3c.2,0,1.4.2,2.8,0l10.6-.2c4.4-.2,9.2-.4,10.8-.6,3.8-.4,4.4-.4,9.2-.8,3.6-.2,4.4,0,5,.4,2,1.2.2,3.2-3.2,3.6-1.2.2-1.6,0-2.2-.6q-.8-.6-4.8-.4c-5.2.2-10,.4-18.8.6-3.8,0-8,.2-9.4.4l-2.4.2-2.6,2.8-3.4,3.4-2.8,3.4-4.6,5.2-8.2,9.6-6.8,7.8-5.6,6.8c-1.2,1.2-3.4,5.2-3.4,5.8s-.8,2.2-1,2.2l-1-.4c-.8-.2-1-.6-1-1.2,0-1.2,1.6-4.4,2.8-5.6l1.6-2.2c.6-.8,1.2-1.6,1.6-1.8l2.4-2.8c1-1.4,2.6-3.2,3.4-4.2,1.4-1.2,5.4-6,7-7.8l2-2.4,8.4-9.8,4.4-4.6,3.2-3.6c.2-.4-1.4-.4-6.6,0l-7,.4c-5,.4-5.6.6-6.8,1.4-.6.6-1.6,1.2-2.4,1.6l-11.4,8.4c-.4.2-.8.2-1,.2-.4-.2-2.2,1-2.2,1.6,0,.4-1.8,2-3.8,3.2l-11.4,8-24.6,18-2.4,1.6-3.8,2.8-11,7.8c-2.4,1.8-2,1.6-6.2,3.6-1.8,1-3.6,2.2-4.2,2.6-2.2,1.6-22.6,10-25.4,10.4-.6,0-2,.4-3,.8-5.8,2-11.6,2.4-14,1.2l-1.4-.8Z"/>
  <path class="cls-1" d="M60.6,163.48c.4-1.4,2.4-3.8,5.6-7,3-3,7.6-7.4,10-9.6l3.4-3c1.6-1.4,4.2-3.8,6.2-5.4l2.8-2.2,4.4-3.4c1-.8,1.6-1.4,1.6-1.6.6,0,1.4-.8,1.2-.6l2.2-1.6,1.6-1c.2-.2.4-.4.4-.2,0,0,.4-.2.8-.6.6-.6,3.8-2.4,4.2-2.4.2,0,.6-.2,1-.6l6.6-3.8c2.4-1.4,11-5.4,12.2-5.6.4-.2.8-.2.8-.4s.2-.2.4-.2,1-.2,1.8-.6l2.8-1c.8-.4,1.6-.6,1.8-.8.2-.2.6-.4,1-.4s1.2-.4,1.6-.6c1-.4,7.6-6.8,8.8-8.4l2.2-2.4,16-16.2c-1,.4-3.4,1.6-4.2,2l-2.2,1c-1.4.4-1.8.4-2.6,0-.4-.2-.8-.6-.8-.8l-.2-1c-.2-.8.6-2.6,1.4-3.4l2.4-2.6.8-.6c0-.2.2-.4.4-.6h.8c.4,0,.8,0,1,.4.2.2.4.8,0,1.2l-.4.4-.4.2-.6.4-.6.6c-3.2,3.8-3.2,4.4.4,3,1.2-.4,2.4-1,2.8-1.2.2-.2.6-.4.8-.4l3.2-1.6c.4-.2.8-.6,1-1,1.2-1.4,1.4-1.4,1.6-1.6.6-.2,1-.2,1.4,0l.2.2c.2.2.6.4.6.8,0,.2-.2.8-.4,1-.4.4-1.8,1.6-2.2,1.8-.2,0-.2.2-.2.2-3.2,4.8-16,17.2-22,23.2-2.2,2.4-2.6,3-1.8,2.6l7.2-1.8c2.2-.6,4.8-1,5.8-1.2,1,0,1.8-.2,2-.4,0-.2.6-.2,1-.2s.8,0,1.2-.2c.2-.2,1-.2,1.6-.4l4.6-.6c3.8-.4,8.8-.4,10.8,0,1.6.2,2.2,2,.8,3-.8.6-5.4,1.4-5.8.8-.4-.2,0-1.4.4-1.4.2,0,.2-.2.2-.2,0-.2-3.4-.4-5,0l-3.2.2c-1,0-3,.2-4,.6l-7.8,1.4c-2,.4-8,2.2-10.4,3l-2.8,1c-1,0-3,1.8-11,9.4-8,7.8-16,14.8-20,17.8l-2.6,2c-1,.6-1.8,1.4-2,1.4,0,.2-.2.4-.2.4-.2,0-1,.4-2,1.2-3.2,2.4-8.8,6.2-12.8,8.6-3.6,2-7.4,4.2-9,5-3.2,1.6-4.8,2.4-6.2,3.2l-5.4,3c-1,.8-4.6,2-5.6,2-.8,0-1.6-1.2-1.4-2.2ZM71.6,159.88l6-3.2c3.8-2,9.6-5.2,10.6-6l3.8-2.6c3.4-2.2,5.4-3.6,6.6-4.6l1.8-1.2c.6-.4,1.8-1.2,2.2-1.8.6-.4,1.6-1,2-1.4.6-.2,1-.6,1.2-.8l3.6-2.8,1.4-1.2c3.2-2.6,7.2-6,11.4-10,3.4-3.4,10-10.2,10-10.4,0-.4-.4-.2-2.2.6-.8.6-1.8.8-2,.8s-.8.4-1.2.6c-.4.4-1.6.8-2.8,1.2-3.4,1-13,5.8-14.2,7-.4.2-1,.6-1.6.8-.6.2-1.2.6-1.6,1-.4.2-.8.4-1,.4,0,0-1.2.6-2.4,1.4l-3.6,2.4c-.8.6-1.6,1-1.6,1.2s-.2.2-.4.2-.8.4-1.4,1l-1.2,1-.4.2-2,1.6c-.6.6-1.6,1.2-2,1.2-.4.2-.6.6-.6,1,0,.2-.2.4-.6.4-.2,0-.6.2-.8.4l-1.4,1.2c-9,7-24.6,22.2-24.6,24.2,0,.6,2.2-.2,9-3.8Z"/>
  <path class="cls-1" d="M178.2,86.28c-.4-.8-.2-1.4.8-3,2-3.2,6.6-6.8,10.6-8.2,3.2-1.2,5-1.4,5.4-.2.2.6-1.2,1.8-4.4,4-3.4,2.4-5.4,3.4-7.6,4-1.4.4-1.8.6-2.2,1.4-.6.6-.6.8-.2,1,1.2.4,7.8-2,18.8-6.8l.4-.2h.6l.2.2c.4.2.4.8.2,1l-2.6,1.2-9,4c-3.6,1.8-5,2.2-7.2,2.6-3.2.4-3.6.4-3.8-1ZM186.8,79.48c1.8-1,4.8-3,5-3.2,0-.4-2,.4-3.2,1-1.4.4-4.8,2.8-5,3.4-.4.4,1,0,3.2-1.2Z"/>
  <path class="cls-1" d="M190.4,96.28s-.4-.6-.8-1c-.6-.6-.6-1-.6-2.2.2-1.6,1.4-2.8,4.2-4.4l2.2-1.6c.2,0,.8-.4,1.6-.6.8-.4,1.6-.8,1.8-1,0-.4.2-2,.2-3.8,0-3.8.2-4.6,2-5.6,1.4-.8,2-1,2.6-.4.8,1,.4,1.8-1,2.2-1,.2-1,.4-1.4,3-.2,2.8.2,3.4,1.6,2.8,2.2-1.4,12.6-4.2,15-4.6,1.2-.4,1.6-.4,2,0,.6.6.2,1-1.4,1.4-3.6,1-8.8,2.6-7.2,2-2.6.8-5.2,1.6-6.8,2.4l-2,.8c-.6.4-1,1-1.2,2-.2.8-.6,2-1,2.6-.8,2-5.4,6-7.8,6.6-.8.4-2,0-2-.6ZM195.2,92.68c2.2-2.2,2.6-2.8,2.8-4v-1l-1.4.8-2,1.2c-.4.2-3.8,2.2-3.8,3.4,0,.8.8,1.6,1.6,1.6.4,0,1.6-.8,2.8-2Z"/>
  <path class="cls-1" d="M212.39,86.88c0-.8.8-1.6,1.4-2.2l1.8-2,1.8-2.2.8-.8,7-7.4c2-1.8,3.4-3.4,3.4-3.4-.2-.2-1.6.2-1.6.4-.4.2-.8.2-1,.4l-3.6,1.2c-.8.2-1.6.4-2.2.8l-2,1c-.8.2-1.6.4-2,.4-.8,0-1-.4-.6-1.2.2-.2,1-.6,1.6-.8l6.2-2.2,2-.8c.2-.2.6-.4,1.2-.6.8-.4,1.4-.6,1.6-.6s.4-.2.4-.2c0-.2.8-.4,1.8-.8l1.8-.6c.6-.4,1.8-1.6,2.8-2.6l6.8-6,4.2-3.6,6.4-5c.2-.2,3-2.2,5.4-3.8l3.4-2.2,1.8-1.2,2.2-1.2c4.2-2.4,9.8-4.8,14-6l1.6-.4c.8-.4,2.8-1,4-1.2l2.2-.4c2-.4,4-.4,4.4.2.6.8.6,2.2-.4,3.6-.8,1.4-3.4,4-4.4,4.6l-3,2.2c-1.2,1-3.2,2.2-4.2,3l-3,1.8c-.6.4-1.4.8-1.8.8-.4.2-.8.4-1,.6,0,.2-.4.6-1,.8l-1.2.4c-2.2,1.4-11.4,5.6-15.6,7.6-.8.4-1.8.8-2.2.8-.2,0-1.8.6-3.4,1.4l-3.4,1.4c-.4.2-2,.8-4.6,2l-7.6,3.4-1,.6-3.4,3.4c-3.8,3.8-9.2,9.2-9.8,10.2v.4c.2.2.6,0,1-.2,1.6-1,3.6-1.6,7-2.8,2.6-.8,3.4-.8,3.8-.2.2.4,0,.6-.8,1.6-1.8,1.8-3,3.2-3.4,4l-.2.6c-.6,1.2-.8,2-.6,2h.4l.8-.2c2-.8,9-3.8,11.6-5l5-2.2c.8,0,2.2,0,.4,1.2-3.8,1.4-.2,0-4.4,2-1,.4-1.8,1.2-2.2,1.2-2.8,1.2-2.4,1.4-3.6,1.8-.8.4-6.2,2.8-7.8,3l-.4.2c-.6.2-1,0-1.6-.4-1-.8-1-1.6-.2-3.4l.6-1.2c.6-1.2,2-3,2.2-3s.2,0,.2-.2-.4,0-1,.2l-2.2.8c-.8.2-1.8.6-2.2,1-.6.4-1.2.6-1.4.8l-1.2.6-2.4,2.4-.4.2-.6.4-.6.6-1,.8-.6.4c-.2.2-.4.4-1,.2-.4-.2-1.2-.6-1.2-1.2ZM239.99,61.88c1.2-.6,2.2-1.2,2.4-1.2s1.2-.4,2-.8c1-.4,1.8-.8,2-.8s1.2-.4,2.2-.8l4.4-1.8,4-1.8,2.8-1c.6-.2,2-.8,3.2-1.6l3.8-1.8,2.2-1.2,2.4-1.2,6.8-3.8c2.6-1.6,5.6-3.6,6.8-4.8l2-1.6c.2,0,.8-.8,1.2-1.4l1.2-1.4s.2-.4.2-.6c-.2-.4-.4-.6-.8-.8-.6-.2-4,.2-4.6.4l-3.2,1c-3.6,1-8.8,3-12.6,4.8-5,2.6-11.4,6.8-14.4,9.2l-1.6,1.2c-.4,0-7.8,6.2-11.8,9.8l-2.4,2c-.2,0-.2.4-.2.6s.6,0,2-.6Z"/>
  <path class="cls-1" d="M247.59,86.28c-.6-.8-.6-1.4-.4-2.2,0-.6.2-1.4.6-2l.6-1.4c0-.2-2.6,1.2-4.2,2.6-1.6,1.2-5.6,3.2-6.6,3.2-1.2,0-1.8-.2-1.8-1.2,0-.6.4-1,1.4-1.8,2.4-2,6.2-4.4,9.2-6,3.4-1.8,4-2,4.2-1.2,0,.2.6.4,1,.4,2.4,0,.4,2.4-.4,3.4-1,1.2-2.4,3.4-1.6,5.2.2.8,2.8,0,2.8,0,2.6-.6,8.6-3,17.4-6.8l.4-.2h.6l.2.2c.4.2.4.8,0,1l-11.4,5.2c-3.8,1.8-7.4,2.6-7.4,2.6h-.6c-.8.2-1.6.2-2.4,0-.8,0-1.2-.4-1.6-1ZM239.19,84.28c1.6-.8,5-2.8,5.4-3.2.4-.4,1.2-1,2.8-1.8.6-.2,1.2-.6,1.2-.8,0-.4-.4-.4-2.4.8-2.6,1.2-5.8,3.4-7,4.6l-1.2.8,1.2-.4Z"/>
  <path class="cls-1" d="M290.39,91.48c-4-1-5.4-3.4-4.2-7.8.2-.8.2-1.6,0-1.6,0-.2-.4,0-1,.2-1,.6-5.8,1.8-7.6,2-1.4,0-1.6,0-2.4-.6-.4-.4-.6-.8-.4-1,.6-.6-1.4.4-4.2,2.4-3.8,2.4-5,3-5.8,2.2-.6-.6-.4-1.2.2-2.4.6-1,6.2-7.4,6.6-7.8.4-.2,1.8,0,1.8.4v.6c.2.6-1.4,2.6-3.2,4.2-.2.2-.8.6-.8.8.2.2.8-.2,1-.2l.8-.4.4-.4,3-1.8,1-.8c1.2-1,2.2-1,2.8-.4.4.4.4.6,0,1.6q-.6,1,0,1.2c1,.2,10.2-2.6,10.8-3.2.6-.4,2.4-.8,3-.4.6.6.4,1.2-.4,1.8-1.2.8-2.8,2.8-3,4.8-.2,1.6-.2,2.4.4,3.2.8,1.4,2.2,1.8,5.6,1.8,9.4-.6,16.8-3.6,24.2-6.4l2.6-.8,6.6-2.8.8-.2,2-1c.4-.2.8-.2,1.2-.4h.6c.2.2.6.4.4.8-.2.4-.6.4-1,.6l-.6.4c-6.8,3.2-7.6,3.4-12.8,5.4-8,3.4-17.2,5.6-22.4,6.2-3,.2-4.4.2-6-.2Z"/>
</svg>